<svg style="width:0; height:0; visibility: hidden;" xmlns="http://www.w3.org/2000/svg">

	<!-- search icon -->
	<symbol id="svg-search" viewBox="0 0 20 20" fill="none">
		<g>
			<path fill-rule="evenodd" clip-rule="evenodd" d="M7.70001 13.2C10.7376 13.2 13.2 10.7375 13.2 7.69995C13.2 4.66239 10.7376 2.19995 7.70001 2.19995C4.66245 2.19995 2.20001 4.66239 2.20001 7.69995C2.20001 10.7375 4.66245 13.2 7.70001 13.2Z" stroke="black" stroke-width="3" stroke-linecap="round" stroke-linejoin="round"/>
			<path d="M16.8 18.4L11.2 12" stroke="black" stroke-width="3" stroke-linecap="round" stroke-linejoin="round"/>
		</g>
	</symbol>

	<!-- mouse icon -->
	<symbol id="svg-mouse" viewBox="0 0 32 48" fill="none">
		<g>
			<path fill-rule="evenodd" clip-rule="evenodd" d="M17.324 0H14.67C6.41698 0.618 -0.00201416 7.06802 -0.00201416 14.817V33.071C-1.41601e-05 41.3 7.176 48 16 48C24.824 48 32 41.3 32 33.069V14.811C32 7.06797 25.58 0.617 17.324 0ZM29 32.868C29 39.553 23.167 44.987 16 44.987C8.833 44.987 3 39.553 3 32.868V15.1C3 8.41698 8.832 2.98199 16 2.98199C23.168 2.98199 29 8.41698 29 15.1V32.865V32.868ZM16 13C15.7394 12.9975 15.4809 13.0464 15.2393 13.144C14.9977 13.2415 14.7776 13.3858 14.5919 13.5685C14.4061 13.7513 14.2582 13.9688 14.1566 14.2088C14.0551 14.4488 14.0018 14.7064 14 14.967V20.033C14.0321 20.5406 14.2564 21.0168 14.6272 21.3648C14.998 21.7129 15.4874 21.9066 15.996 21.9066C16.5045 21.9066 16.994 21.7129 17.3648 21.3648C17.7356 21.0168 17.9599 20.5406 17.992 20.033V14.967C17.988 14.4422 17.7761 13.9404 17.4026 13.5717C17.0292 13.2029 16.5248 12.9973 16 13Z" fill="white"/>
		</g>
	</symbol>

	<!-- chart-pie -->
	<symbol id="svg-chart" viewBox="0 0 64 64" fill="none">
	<g>
		<path d="M50.3333 32H31.6667V13.3333C31.6667 11.7333 30.6 10.6667 29 10.6667C15.6667 10.6667 5 21.3333 5 34.6667C5 48 15.6667 58.6667 29 58.6667C42.3333 58.6667 53 48 53 34.6667C53 33.0667 51.9333 32 50.3333 32ZM31.6667 53.0667C21.5333 54.6667 11.9333 47.4667 10.6 37.3333C9 27.2 16.2 17.6 26.3333 16.2667V34.6667C26.3333 36.2667 27.4 37.3333 29 37.3333H47.4C46.3333 45.6 39.9333 52 31.6667 53.0667ZM39.6667 5.33333C38.0667 5.33333 37 6.39999 37 7.99999V24C37 25.6 38.0667 26.6667 39.6667 26.6667H55.6667C57.2667 26.6667 58.3333 25.6 58.3333 24C58.3333 13.6 50.0667 5.33333 39.6667 5.33333ZM42.3333 21.3333V10.9333C47.6667 12 51.6667 16 52.7333 21.3333H42.3333Z" fill="#AC3DF0"/>
	</g>
	</symbol>

	<!-- microphone -->
	<symbol id="svg-microphone" viewBox="0 0 64 64" fill="none">
	<g>
		<path d="M32 40C34.8289 40 37.542 38.8762 39.5424 36.8758C41.5428 34.8754 42.6666 32.1623 42.6666 29.3333V13.3333C42.6666 10.5044 41.5428 7.79125 39.5424 5.79087C37.542 3.79048 34.8289 2.66667 32 2.66667C29.171 2.66667 26.4579 3.79048 24.4575 5.79087C22.4571 7.79125 21.3333 10.5044 21.3333 13.3333V29.3333C21.3333 32.1623 22.4571 34.8754 24.4575 36.8758C26.4579 38.8762 29.171 40 32 40ZM26.6666 13.3333C26.6666 11.9188 27.2285 10.5623 28.2287 9.5621C29.2289 8.56191 30.5855 8 32 8C33.4144 8 34.771 8.56191 35.7712 9.5621C36.7714 10.5623 37.3333 11.9188 37.3333 13.3333V29.3333C37.3333 30.7478 36.7714 32.1044 35.7712 33.1046C34.771 34.1048 33.4144 34.6667 32 34.6667C30.5855 34.6667 29.2289 34.1048 28.2287 33.1046C27.2285 32.1044 26.6666 30.7478 26.6666 29.3333V13.3333ZM53.3333 29.3333C53.3333 28.6261 53.0523 27.9478 52.5522 27.4477C52.0521 26.9476 51.3739 26.6667 50.6666 26.6667C49.9594 26.6667 49.2811 26.9476 48.781 27.4477C48.2809 27.9478 48 28.6261 48 29.3333C48 33.5768 46.3143 37.6465 43.3137 40.647C40.3131 43.6476 36.2434 45.3333 32 45.3333C27.7565 45.3333 23.6868 43.6476 20.6863 40.647C17.6857 37.6465 16 33.5768 16 29.3333C16 28.6261 15.719 27.9478 15.2189 27.4477C14.7188 26.9476 14.0405 26.6667 13.3333 26.6667C12.626 26.6667 11.9478 26.9476 11.4477 27.4477C10.9476 27.9478 10.6666 28.6261 10.6666 29.3333C10.6713 34.5261 12.5699 39.5389 16.0064 43.4319C19.4428 47.325 24.1812 49.8309 29.3333 50.48V56H24C23.2927 56 22.6144 56.281 22.1143 56.781C21.6142 57.2811 21.3333 57.9594 21.3333 58.6667C21.3333 59.3739 21.6142 60.0522 22.1143 60.5523C22.6144 61.0524 23.2927 61.3333 24 61.3333H40C40.7072 61.3333 41.3855 61.0524 41.8856 60.5523C42.3857 60.0522 42.6666 59.3739 42.6666 58.6667C42.6666 57.9594 42.3857 57.2811 41.8856 56.781C41.3855 56.281 40.7072 56 40 56H34.6666V50.48C39.8187 49.8309 44.5571 47.325 47.9936 43.4319C51.43 39.5389 53.3286 34.5261 53.3333 29.3333Z" fill="#00C470"/>
	</g>
	</symbol>

	<!-- file-check -->
	<symbol id="svg-file" viewBox="0 0 64 64" fill="none">
	<g>
		<path d="M30.6666 53.3333H14.6666C13.9594 53.3333 13.2811 53.0524 12.781 52.5523C12.2809 52.0522 12 51.3739 12 50.6667V13.3333C12 12.6261 12.2809 11.9478 12.781 11.4477C13.2811 10.9476 13.9594 10.6667 14.6666 10.6667H28V18.6667C28 20.7884 28.8428 22.8232 30.3431 24.3235C31.8434 25.8238 33.8782 26.6667 36 26.6667H44V40C44 40.7072 44.2809 41.3855 44.781 41.8856C45.2811 42.3857 45.9594 42.6667 46.6666 42.6667C47.3739 42.6667 48.0522 42.3857 48.5522 41.8856C49.0523 41.3855 49.3333 40.7072 49.3333 40V24C49.3333 24 49.3333 24 49.3333 23.84C49.3055 23.595 49.2519 23.3537 49.1733 23.12V22.88C49.0451 22.6058 48.8741 22.3538 48.6666 22.1333L32.6666 6.13333C32.4462 5.9259 32.1941 5.75488 31.92 5.62666C31.8317 5.61122 31.7415 5.61122 31.6533 5.62666C31.394 5.488 31.1153 5.38912 30.8266 5.33333H14.6666C12.5449 5.33333 10.5101 6.17618 9.00977 7.67647C7.50948 9.17677 6.66663 11.2116 6.66663 13.3333V50.6667C6.66663 52.7884 7.50948 54.8232 9.00977 56.3235C10.5101 57.8238 12.5449 58.6667 14.6666 58.6667H30.6666C31.3739 58.6667 32.0521 58.3857 32.5522 57.8856C33.0523 57.3855 33.3333 56.7072 33.3333 56C33.3333 55.2928 33.0523 54.6145 32.5522 54.1144C32.0521 53.6143 31.3739 53.3333 30.6666 53.3333ZM33.3333 14.4267L40.24 21.3333H36C35.2927 21.3333 34.6144 21.0524 34.1143 20.5523C33.6142 20.0522 33.3333 19.3739 33.3333 18.6667V14.4267ZM20 37.3333H36C36.7072 37.3333 37.3855 37.0524 37.8856 36.5523C38.3857 36.0522 38.6666 35.3739 38.6666 34.6667C38.6666 33.9594 38.3857 33.2811 37.8856 32.781C37.3855 32.2809 36.7072 32 36 32H20C19.2927 32 18.6144 32.2809 18.1143 32.781C17.6142 33.2811 17.3333 33.9594 17.3333 34.6667C17.3333 35.3739 17.6142 36.0522 18.1143 36.5523C18.6144 37.0524 19.2927 37.3333 20 37.3333ZM30.6666 42.6667H20C19.2927 42.6667 18.6144 42.9476 18.1143 43.4477C17.6142 43.9478 17.3333 44.6261 17.3333 45.3333C17.3333 46.0406 17.6142 46.7189 18.1143 47.2189C18.6144 47.719 19.2927 48 20 48H30.6666C31.3739 48 32.0521 47.719 32.5522 47.2189C33.0523 46.7189 33.3333 46.0406 33.3333 45.3333C33.3333 44.6261 33.0523 43.9478 32.5522 43.4477C32.0521 42.9476 31.3739 42.6667 30.6666 42.6667ZM20 26.6667H22.6666C23.3739 26.6667 24.0521 26.3857 24.5522 25.8856C25.0523 25.3855 25.3333 24.7072 25.3333 24C25.3333 23.2928 25.0523 22.6145 24.5522 22.1144C24.0521 21.6143 23.3739 21.3333 22.6666 21.3333H20C19.2927 21.3333 18.6144 21.6143 18.1143 22.1144C17.6142 22.6145 17.3333 23.2928 17.3333 24C17.3333 24.7072 17.6142 25.3855 18.1143 25.8856C18.6144 26.3857 19.2927 26.6667 20 26.6667ZM56.56 43.44C56.3121 43.1901 56.0171 42.9917 55.6922 42.8563C55.3672 42.7209 55.0187 42.6512 54.6666 42.6512C54.3146 42.6512 53.966 42.7209 53.6411 42.8563C53.3161 42.9917 53.0212 43.1901 52.7733 43.44L44 52.24L40.56 48.7733C40.3113 48.5247 40.0162 48.3275 39.6913 48.1929C39.3664 48.0583 39.0183 47.9891 38.6666 47.9891C38.315 47.9891 37.9668 48.0583 37.642 48.1929C37.3171 48.3275 37.0219 48.5247 36.7733 48.7733C36.5247 49.022 36.3274 49.3171 36.1929 49.642C36.0583 49.9669 35.989 50.315 35.989 50.6667C35.989 51.0183 36.0583 51.3665 36.1929 51.6913C36.3274 52.0162 36.5247 52.3114 36.7733 52.56L42.1066 57.8933C42.3545 58.1433 42.6495 58.3417 42.9744 58.477C43.2994 58.6124 43.6479 58.6821 44 58.6821C44.352 58.6821 44.7005 58.6124 45.0255 58.477C45.3505 58.3417 45.6454 58.1433 45.8933 57.8933L56.56 47.2267C56.8099 46.9788 57.0083 46.6838 57.1437 46.3589C57.2791 46.0339 57.3488 45.6854 57.3488 45.3333C57.3488 44.9813 57.2791 44.6327 57.1437 44.3078C57.0083 43.9828 56.8099 43.6879 56.56 43.44Z" fill="#1ECBE1"/>
	</g>
	</symbol>

	<!-- money-stack -->
	<symbol id="svg-money" viewBox="0 0 64 64" fill="none">
	<g>
		<path d="M58.6667 45.3333H5.33335C4.62611 45.3333 3.94783 45.6143 3.44774 46.1144C2.94764 46.6145 2.66669 47.2928 2.66669 48C2.66669 48.7072 2.94764 49.3855 3.44774 49.8856C3.94783 50.3857 4.62611 50.6667 5.33335 50.6667H58.6667C59.3739 50.6667 60.0522 50.3857 60.5523 49.8856C61.0524 49.3855 61.3334 48.7072 61.3334 48C61.3334 47.2928 61.0524 46.6145 60.5523 46.1144C60.0522 45.6143 59.3739 45.3333 58.6667 45.3333ZM58.6667 56H5.33335C4.62611 56 3.94783 56.281 3.44774 56.781C2.94764 57.2811 2.66669 57.9594 2.66669 58.6667C2.66669 59.3739 2.94764 60.0522 3.44774 60.5523C3.94783 61.0524 4.62611 61.3333 5.33335 61.3333H58.6667C59.3739 61.3333 60.0522 61.0524 60.5523 60.5523C61.0524 60.0522 61.3334 59.3739 61.3334 58.6667C61.3334 57.9594 61.0524 57.2811 60.5523 56.781C60.0522 56.281 59.3739 56 58.6667 56ZM16 18.6667C15.4726 18.6667 14.957 18.8231 14.5185 19.1161C14.08 19.4091 13.7382 19.8256 13.5363 20.3128C13.3345 20.8001 13.2817 21.3363 13.3846 21.8536C13.4875 22.3709 13.7415 22.846 14.1144 23.219C14.4873 23.5919 14.9625 23.8459 15.4798 23.9488C15.9971 24.0517 16.5332 23.9988 17.0205 23.797C17.5078 23.5952 17.9243 23.2534 18.2173 22.8149C18.5103 22.3763 18.6667 21.8608 18.6667 21.3333C18.6667 20.6261 18.3857 19.9478 17.8856 19.4477C17.3855 18.9476 16.7073 18.6667 16 18.6667ZM53.3334 2.66667H10.6667C8.54495 2.66667 6.51012 3.50953 5.00983 5.00982C3.50954 6.51011 2.66669 8.54494 2.66669 10.6667V32C2.66669 34.1217 3.50954 36.1566 5.00983 37.6569C6.51012 39.1572 8.54495 40 10.6667 40H53.3334C55.4551 40 57.4899 39.1572 58.9902 37.6569C60.4905 36.1566 61.3334 34.1217 61.3334 32V10.6667C61.3334 8.54494 60.4905 6.51011 58.9902 5.00982C57.4899 3.50953 55.4551 2.66667 53.3334 2.66667ZM56 32C56 32.7072 55.7191 33.3855 55.219 33.8856C54.7189 34.3857 54.0406 34.6667 53.3334 34.6667H10.6667C9.95944 34.6667 9.28117 34.3857 8.78107 33.8856C8.28097 33.3855 8.00002 32.7072 8.00002 32V10.6667C8.00002 9.95943 8.28097 9.28115 8.78107 8.78105C9.28117 8.28096 9.95944 8 10.6667 8H53.3334C54.0406 8 54.7189 8.28096 55.219 8.78105C55.7191 9.28115 56 9.95943 56 10.6667V32ZM32 13.3333C30.4178 13.3333 28.871 13.8025 27.5555 14.6816C26.2399 15.5606 25.2145 16.8101 24.609 18.2719C24.0035 19.7337 23.8451 21.3422 24.1537 22.8941C24.4624 24.4459 25.2243 25.8714 26.3432 26.9902C27.462 28.109 28.8874 28.8709 30.4393 29.1796C31.9911 29.4883 33.5997 29.3299 35.0615 28.7244C36.5233 28.1189 37.7727 27.0935 38.6518 25.7779C39.5308 24.4623 40 22.9156 40 21.3333C40 19.2116 39.1572 17.1768 37.6569 15.6765C36.1566 14.1762 34.1217 13.3333 32 13.3333ZM32 24C31.4726 24 30.957 23.8436 30.5185 23.5506C30.08 23.2576 29.7382 22.8411 29.5363 22.3538C29.3345 21.8666 29.2817 21.3304 29.3846 20.8131C29.4875 20.2958 29.7415 19.8207 30.1144 19.4477C30.4873 19.0748 30.9625 18.8208 31.4798 18.7179C31.9971 18.615 32.5332 18.6678 33.0205 18.8697C33.5078 19.0715 33.9243 19.4133 34.2173 19.8518C34.5103 20.2903 34.6667 20.8059 34.6667 21.3333C34.6667 22.0406 34.3857 22.7189 33.8856 23.219C33.3855 23.7191 32.7073 24 32 24ZM48 18.6667C47.4726 18.6667 46.957 18.8231 46.5185 19.1161C46.08 19.4091 45.7382 19.8256 45.5363 20.3128C45.3345 20.8001 45.2817 21.3363 45.3846 21.8536C45.4875 22.3709 45.7415 22.846 46.1144 23.219C46.4873 23.5919 46.9625 23.8459 47.4798 23.9488C47.9971 24.0517 48.5332 23.9988 49.0205 23.797C49.5078 23.5952 49.9243 23.2534 50.2173 22.8149C50.5103 22.3763 50.6667 21.8608 50.6667 21.3333C50.6667 20.6261 50.3857 19.9478 49.8856 19.4477C49.3855 18.9476 48.7073 18.6667 48 18.6667Z" fill="#10ABED" fill-opacity="0.91"/>
	</g>
	</symbol>

	<!-- vk -->
	<symbol id="svg-vk" viewBox="0 0 24 24" fill="none">
		<g>
			<path d="M15.0729 2H8.9375C3.33331 2 2 3.33331 2 8.92706V15.0625C2 20.6666 3.32294 22 8.92706 22H15.0625C20.6667 22 22 20.6771 22 15.0729V8.9375C22 3.33331 20.6771 2 15.0729 2ZM18.1458 16.2708H16.6875C16.1354 16.2708 15.9688 15.8229 14.9792 14.8333C14.1146 14 13.75 13.8958 13.5312 13.8958C13.2292 13.8958 13.1458 13.9791 13.1458 14.3958V15.7083C13.1458 16.0625 13.0312 16.2708 12.1042 16.2708C11.2046 16.2104 10.3322 15.9371 9.55888 15.4735C8.78557 15.0098 8.13346 14.3691 7.65625 13.6041C6.52336 12.194 5.73511 10.5391 5.35419 8.77081C5.35419 8.55206 5.4375 8.35413 5.85419 8.35413H7.3125C7.6875 8.35413 7.82294 8.52081 7.96875 8.90625C8.67706 10.9896 9.88544 12.8021 10.375 12.8021C10.5625 12.8021 10.6458 12.7188 10.6458 12.25V10.1041C10.5833 9.125 10.0625 9.04163 10.0625 8.6875C10.0694 8.59407 10.1124 8.50699 10.1824 8.44475C10.2524 8.3825 10.3439 8.35 10.4375 8.35413H12.7292C13.0417 8.35413 13.1458 8.51038 13.1458 8.88538V11.7812C13.1458 12.0938 13.2812 12.1979 13.375 12.1979C13.5625 12.1979 13.7083 12.0938 14.0521 11.75C14.7907 10.8492 15.3943 9.84559 15.8438 8.77081C15.8896 8.64149 15.9766 8.53074 16.0913 8.4555C16.2061 8.38025 16.3423 8.34465 16.4792 8.35413H17.9375C18.375 8.35413 18.4688 8.57288 18.375 8.88538C17.8444 10.0737 17.1878 11.2017 16.4167 12.25C16.2604 12.4896 16.1979 12.6146 16.4167 12.8958C16.5625 13.1146 17.0729 13.5416 17.4167 13.9479C17.9167 14.4466 18.3318 15.0237 18.6458 15.6562C18.7708 16.0625 18.5625 16.2708 18.1458 16.2708Z" fill="white"/>
		</g>
	</symbol>

	<!-- facebook -->
	<symbol id="svg-fb" viewBox="0 0 24 24" fill="none">
		<g>
			<path d="M15.12 5.32003H17V2.14003C16.0897 2.04538 15.1751 1.99865 14.26 2.00003C11.54 2.00003 9.67999 3.66003 9.67999 6.70003V9.32003H6.60999V12.88H9.67999V22H13.36V12.88H16.42L16.88 9.32003H13.36V7.05003C13.36 6.00003 13.64 5.32003 15.12 5.32003Z" fill="white"/>
		</g>
	</symbol>

	<!-- instagram -->
	<symbol id="svg-inst" viewBox="0 0 24 24" fill="none">
		<g>
			<path d="M17.34 5.46C17.1027 5.46 16.8707 5.53038 16.6733 5.66224C16.476 5.79409 16.3222 5.98151 16.2313 6.20078C16.1405 6.42005 16.1168 6.66133 16.1631 6.89411C16.2094 7.12689 16.3236 7.34071 16.4915 7.50853C16.6593 7.67635 16.8731 7.79064 17.1059 7.83694C17.3387 7.88324 17.5799 7.85948 17.7992 7.76866C18.0185 7.67783 18.2059 7.52402 18.3378 7.32668C18.4696 7.12935 18.54 6.89734 18.54 6.66C18.54 6.34174 18.4136 6.03652 18.1885 5.81147C17.9635 5.58643 17.6583 5.46 17.34 5.46ZM21.94 7.88C21.9206 7.0503 21.7652 6.2294 21.48 5.45C21.2257 4.78313 20.83 4.17928 20.32 3.68C19.8248 3.16743 19.2196 2.77418 18.55 2.53C17.7727 2.23616 16.9508 2.07721 16.12 2.06C15.06 2 14.72 2 12 2C9.28 2 8.94 2 7.88 2.06C7.04915 2.07721 6.22734 2.23616 5.45 2.53C4.78168 2.77665 4.17693 3.16956 3.68 3.68C3.16743 4.17518 2.77418 4.78044 2.53 5.45C2.23616 6.22734 2.07721 7.04915 2.06 7.88C2 8.94 2 9.28 2 12C2 14.72 2 15.06 2.06 16.12C2.07721 16.9508 2.23616 17.7727 2.53 18.55C2.77418 19.2196 3.16743 19.8248 3.68 20.32C4.17693 20.8304 4.78168 21.2234 5.45 21.47C6.22734 21.7638 7.04915 21.9228 7.88 21.94C8.94 22 9.28 22 12 22C14.72 22 15.06 22 16.12 21.94C16.9508 21.9228 17.7727 21.7638 18.55 21.47C19.2196 21.2258 19.8248 20.8326 20.32 20.32C20.8322 19.8226 21.2283 19.2182 21.48 18.55C21.7652 17.7706 21.9206 16.9497 21.94 16.12C21.94 15.06 22 14.72 22 12C22 9.28 22 8.94 21.94 7.88ZM20.14 16C20.1327 16.6348 20.0178 17.2637 19.8 17.86C19.6403 18.2952 19.3839 18.6884 19.05 19.01C18.7256 19.3405 18.3332 19.5964 17.9 19.76C17.3037 19.9778 16.6748 20.0927 16.04 20.1C15.04 20.15 14.67 20.16 12.04 20.16C9.41 20.16 9.04 20.16 8.04 20.1C7.38089 20.1123 6.72459 20.0109 6.1 19.8C5.68578 19.6281 5.31136 19.3728 5 19.05C4.66809 18.7287 4.41484 18.3352 4.26 17.9C4.01586 17.2952 3.88044 16.6519 3.86 16C3.86 15 3.8 14.63 3.8 12C3.8 9.37 3.8 9 3.86 8C3.86448 7.35106 3.98295 6.70795 4.21 6.1C4.38605 5.67791 4.65627 5.30166 5 5C5.30381 4.65617 5.67929 4.3831 6.1 4.2C6.70955 3.98004 7.352 3.86508 8 3.86C9 3.86 9.37 3.8 12 3.8C14.63 3.8 15 3.8 16 3.86C16.6348 3.86728 17.2637 3.98225 17.86 4.2C18.3144 4.36865 18.7223 4.64285 19.05 5C19.3777 5.30718 19.6338 5.68273 19.8 6.1C20.0223 6.70893 20.1373 7.35178 20.14 8C20.19 9 20.2 9.37 20.2 12C20.2 14.63 20.19 15 20.14 16ZM12 6.87C10.9858 6.87198 9.99496 7.17453 9.15265 7.73942C8.31035 8.30431 7.65438 9.1062 7.26763 10.0438C6.88089 10.9813 6.78072 12.0125 6.97979 13.0069C7.17886 14.0014 7.66824 14.9145 8.38608 15.631C9.10392 16.3474 10.018 16.835 11.0129 17.0321C12.0077 17.2293 13.0387 17.1271 13.9755 16.7385C14.9123 16.35 15.7129 15.6924 16.2761 14.849C16.8394 14.0056 17.14 13.0142 17.14 12C17.1413 11.3251 17.0092 10.6566 16.7512 10.033C16.4933 9.40931 16.1146 8.84281 15.6369 8.36605C15.1592 7.88929 14.5919 7.51168 13.9678 7.25493C13.3436 6.99818 12.6749 6.86736 12 6.87ZM12 15.33C11.3414 15.33 10.6976 15.1347 10.15 14.7688C9.60234 14.4029 9.17552 13.8828 8.92348 13.2743C8.67144 12.6659 8.6055 11.9963 8.73398 11.3503C8.86247 10.7044 9.17963 10.111 9.64533 9.64533C10.111 9.17963 10.7044 8.86247 11.3503 8.73398C11.9963 8.6055 12.6659 8.67144 13.2743 8.92348C13.8828 9.17552 14.4029 9.60234 14.7688 10.15C15.1347 10.6976 15.33 11.3414 15.33 12C15.33 12.4373 15.2439 12.8703 15.0765 13.2743C14.9092 13.6784 14.6639 14.0454 14.3547 14.3547C14.0454 14.6639 13.6784 14.9092 13.2743 15.0765C12.8703 15.2439 12.4373 15.33 12 15.33Z" fill="white"/>
		</g>
	</symbol>

	<!-- twitter -->
	<symbol id="svg-twit" viewBox="0 0 24 24" fill="none">
		<g>
			<path d="M22 5.79997C21.2483 6.12606 20.4534 6.34163 19.64 6.43997C20.4982 5.92729 21.1413 5.12075 21.45 4.16997C20.6436 4.65003 19.7608 4.98826 18.84 5.16997C18.2245 4.50254 17.405 4.05826 16.5098 3.90682C15.6147 3.75537 14.6945 3.90532 13.8938 4.33315C13.093 4.76099 12.4569 5.4425 12.0852 6.2708C11.7135 7.09911 11.6273 8.02736 11.84 8.90997C10.2094 8.82749 8.61444 8.40292 7.15865 7.66383C5.70287 6.92474 4.41885 5.88766 3.39 4.61997C3.02914 5.25013 2.83952 5.96379 2.84 6.68997C2.83872 7.36435 3.00422 8.02858 3.32176 8.62353C3.63929 9.21848 4.09902 9.72568 4.66 10.1C4.00798 10.0822 3.36989 9.90726 2.8 9.58997V9.63997C2.80489 10.5849 3.13599 11.4991 3.73731 12.2279C4.33864 12.9568 5.17326 13.4556 6.1 13.64C5.74326 13.7485 5.37287 13.8058 5 13.81C4.74189 13.807 4.48442 13.7835 4.23 13.74C4.49391 14.5528 5.00462 15.2631 5.69107 15.7721C6.37753 16.2811 7.20558 16.5635 8.06 16.58C6.6172 17.7152 4.83588 18.3348 3 18.34C2.66574 18.3411 2.33174 18.321 2 18.28C3.87443 19.4902 6.05881 20.1327 8.29 20.13C9.82969 20.146 11.3571 19.855 12.7831 19.274C14.2091 18.6931 15.505 17.8338 16.5952 16.7465C17.6854 15.6591 18.548 14.3654 19.1326 12.9409C19.7172 11.5164 20.012 9.98969 20 8.44997C20 8.27996 20 8.09997 20 7.91997C20.7847 7.33478 21.4615 6.61739 22 5.79997Z" fill="white"/>
		</g>
	</symbol>

	<!-- arrow left-->
	<symbol id="svg-arleft" viewBox="0 0 24 24" fill="none">
		<g>
			<path d="M20 12H4" stroke="#00C470" stroke-width="2" stroke-linecap="round" stroke-linejoin="round"/>
			<path d="M10 18L4 12L10 6" stroke="#00C470" stroke-width="2" stroke-linecap="round" stroke-linejoin="round"/>
		</g>
	</symbol>

<!-- arrow right-->
	<symbol id="svg-arright" viewBox="0 0 24 24" fill="none">
		<g>
			<path d="M4 12L20 12" stroke="#00C470" stroke-width="2" stroke-linecap="round" stroke-linejoin="round"/>
			<path d="M14 6L20 12L14 18" stroke="#00C470" stroke-width="2" stroke-linecap="round" stroke-linejoin="round"/>
		</g>
	</symbol>
</svg>